<?xml version="1.0" standalone="no"?>
<!DOCTYPE svg PUBLIC "-//W3C//DTD SVG 20010904//EN"
 "http://www.w3.org/TR/2001/REC-SVG-20010904/DTD/svg10.dtd">
<svg version="1.0" xmlns="http://www.w3.org/2000/svg"
 width="512.000000pt" height="512.000000pt" viewBox="0 0 512.000000 512.000000"
 preserveAspectRatio="xMidYMid meet">

<g transform="translate(0.000000,512.000000) scale(0.100000,-0.100000)"
fill="#000000" stroke="none">
<path d="M3425 5106 c-51 -23 -85 -69 -121 -167 -75 -203 -181 -364 -338 -517
-190 -185 -372 -283 -614 -331 -143 -29 -271 -35 -429 -21 -109 10 -151 10
-198 0 -158 -32 -288 -143 -340 -289 -21 -60 -215 -993 -215 -1033 1 -45 32
-110 65 -136 33 -26 32 -29 -37 -231 -81 -238 -180 -427 -317 -606 -85 -111
-215 -237 -471 -455 -140 -120 -270 -237 -288 -261 -127 -167 -156 -401 -73
-591 18 -42 19 -54 9 -102 -17 -81 -2 -119 97 -235 97 -113 140 -138 220 -128
65 9 405 124 585 198 777 318 1539 867 1990 1434 53 66 141 176 195 245 55 69
171 197 257 285 l156 160 29 -27 c53 -51 139 -63 203 -30 19 9 215 170 435
357 220 187 503 428 629 535 241 204 266 233 266 310 0 59 -32 108 -182 285
-164 193 -187 209 -282 203 l-57 -3 -30 90 c-40 120 -117 263 -198 371 -84
113 -294 324 -436 437 -122 98 -315 229 -369 252 -43 18 -101 19 -141 1z m191
-231 c233 -155 483 -383 616 -560 107 -141 182 -300 206 -433 l9 -53 -580
-493 -580 -493 -38 8 c-87 20 -260 28 -376 18 -294 -25 -653 -143 -956 -314
-139 -78 -131 -80 -371 65 -109 66 -201 121 -203 124 -9 8 30 176 41 176 6 0
43 -9 81 -20 38 -11 80 -20 93 -20 35 0 72 43 72 83 0 54 -25 74 -125 103 -49
14 -91 27 -92 28 -3 2 54 288 62 313 3 8 28 4 86 -13 46 -13 94 -24 106 -24
36 0 73 43 73 83 0 54 -25 74 -125 103 -49 14 -93 28 -97 30 -8 5 21 132 38
166 25 49 76 99 128 126 49 26 56 27 166 22 416 -18 624 16 875 140 142 70
260 157 383 280 165 166 280 353 371 603 6 15 14 27 17 27 4 0 58 -34 120 -75z
m1203 -1245 c72 -84 130 -157 129 -162 -5 -12 -1227 -1048 -1237 -1048 -5 0
-46 44 -92 98 -46 53 -107 125 -136 159 l-54 61 618 526 c340 289 623 525 629
523 7 -1 71 -72 143 -157z m-1760 -926 l61 -7 -103 -106 c-123 -128 -241 -264
-367 -426 -203 -261 -392 -462 -606 -641 -510 -427 -1073 -750 -1684 -964
l-140 -50 -14 28 c-39 77 -43 217 -9 306 37 93 76 136 318 341 260 220 397
352 499 483 144 183 262 408 348 665 29 86 57 157 62 157 5 0 53 -27 108 -61
138 -85 172 -99 244 -99 76 0 115 13 232 80 265 151 596 263 852 289 117 12
129 12 199 5z m319 -166 l70 -83 -157 -160 c-164 -168 -251 -267 -391 -450
-556 -724 -1424 -1315 -2384 -1624 -88 -29 -162 -50 -166 -49 -19 8 -132 150
-124 157 5 4 65 27 134 50 538 182 1074 463 1520 798 380 284 639 537 905 883
49 63 123 155 164 205 94 111 332 355 348 355 6 0 42 -37 81 -82z"/>
</g>
</svg>
